{
    "asset" : {
        "generator" : "Khronos glTF Blender I/O v3.4.50",
        "version" : "2.0"
    },
    "scene" : 0,
    "scenes" : [
        {
            "name" : "Scene",
            "nodes" : [
                0,
                1,
                2
            ]
        }
    ],
    "nodes" : [
        {
            "mesh" : 0,
            "name" : "Donut",
            "translation" : [
                0,
                0.0171665046364069,
                0
            ]
        },
        {
            "mesh" : 1,
            "name" : "Icing",
            "translation" : [
                0,
                0.0171665046364069,
                0
            ]
        },
        {
            "mesh" : 2,
            "name" : "Plane",
            "scale" : [
                7.472323417663574,
                7.472323417663574,
                7.472323417663574
            ]
        }
    ],
    "materials" : [
        {
            "doubleSided" : true,
            "name" : "Material.002",
            "pbrMetallicRoughness" : {
                "baseColorFactor" : [
                    1,
                    0.5558247566223145,
                    0.27211225032806396,
                    1
                ],
                "metallicFactor" : 0,
                "roughnessFactor" : 0.5
            }
        },
        {
            "doubleSided" : true,
            "name" : "Material.001",
            "pbrMetallicRoughness" : {
                "baseColorFactor" : [
                    0.9568153619766235,
                    0.27885687351226807,
                    1,
                    1
                ],
                "metallicFactor" : 0,
                "roughnessFactor" : 0.20078739523887634
            }
        },
        {
            "doubleSided" : true,
            "name" : "Material.003",
            "pbrMetallicRoughness" : {
                "baseColorFactor" : [
                    0.15864217281341553,
                    0.7771434783935547,
                    0.8000000715255737,
                    1
                ],
                "metallicFactor" : 0,
                "roughnessFactor" : 0.5
            }
        }
    ],
    "meshes" : [
        {
            "name" : "Torus.003",
            "primitives" : [
                {
                    "attributes" : {
                        "POSITION" : 0,
                        "TEXCOORD_0" : 1,
                        "NORMAL" : 2
                    },
                    "indices" : 3,
                    "material" : 0
                }
            ]
        },
        {
            "name" : "Torus.004",
            "primitives" : [
                {
                    "attributes" : {
                        "POSITION" : 4,
                        "TEXCOORD_0" : 5,
                        "NORMAL" : 6
                    },
                    "indices" : 7,
                    "material" : 1
                }
            ]
        },
        {
            "name" : "Plane.001",
            "primitives" : [
                {
                    "attributes" : {
                        "POSITION" : 8,
                        "TEXCOORD_0" : 9,
                        "NORMAL" : 10
                    },
                    "indices" : 11,
                    "material" : 2
                }
            ]
        }
    ],
    "accessors" : [
        {
            "bufferView" : 0,
            "componentType" : 5126,
            "count" : 2673,
            "max" : [
                0.043006692081689835,
                0.018066758289933205,
                0.043508294969797134
            ],
            "min" : [
                -0.042900923639535904,
                -0.01795361191034317,
                -0.042708657681941986
            ],
            "type" : "VEC3"
        },
        {
            "bufferView" : 1,
            "componentType" : 5126,
            "count" : 2673,
            "type" : "VEC2"
        },
        {
            "bufferView" : 2,
            "componentType" : 5126,
            "count" : 2673,
            "type" : "VEC3"
        },
        {
            "bufferView" : 3,
            "componentType" : 5123,
            "count" : 15360,
            "type" : "SCALAR"
        },
        {
            "bufferView" : 4,
            "componentType" : 5126,
            "count" : 44040,
            "max" : [
                0.04489414021372795,
                0.020998001098632812,
                0.04555762931704521
            ],
            "min" : [
                -0.044961705803871155,
                -0.009810329414904118,
                -0.044169340282678604
            ],
            "type" : "VEC3"
        },
        {
            "bufferView" : 5,
            "componentType" : 5126,
            "count" : 44040,
            "type" : "VEC2"
        },
        {
            "bufferView" : 6,
            "componentType" : 5126,
            "count" : 44040,
            "type" : "VEC3"
        },
        {
            "bufferView" : 7,
            "componentType" : 5123,
            "count" : 263424,
            "type" : "SCALAR"
        },
        {
            "bufferView" : 8,
            "componentType" : 5126,
            "count" : 4,
            "max" : [
                0.30480000376701355,
                0,
                0.30480000376701355
            ],
            "min" : [
                -0.30480000376701355,
                0,
                -0.30480000376701355
            ],
            "type" : "VEC3"
        },
        {
            "bufferView" : 9,
            "componentType" : 5126,
            "count" : 4,
            "type" : "VEC2"
        },
        {
            "bufferView" : 10,
            "componentType" : 5126,
            "count" : 4,
            "type" : "VEC3"
        },
        {
            "bufferView" : 11,
            "componentType" : 5123,
            "count" : 6,
            "type" : "SCALAR"
        }
    ],
    "bufferViews" : [
        {
            "buffer" : 0,
            "byteLength" : 32076,
            "byteOffset" : 0,
            "target" : 34962
        },
        {
            "buffer" : 0,
            "byteLength" : 21384,
            "byteOffset" : 32076,
            "target" : 34962
        },
        {
            "buffer" : 0,
            "byteLength" : 32076,
            "byteOffset" : 53460,
            "target" : 34962
        },
        {
            "buffer" : 0,
            "byteLength" : 30720,
            "byteOffset" : 85536,
            "target" : 34963
        },
        {
            "buffer" : 0,
            "byteLength" : 528480,
            "byteOffset" : 116256,
            "target" : 34962
        },
        {
            "buffer" : 0,
            "byteLength" : 352320,
            "byteOffset" : 644736,
            "target" : 34962
        },
        {
            "buffer" : 0,
            "byteLength" : 528480,
            "byteOffset" : 997056,
            "target" : 34962
        },
        {
            "buffer" : 0,
            "byteLength" : 526848,
            "byteOffset" : 1525536,
            "target" : 34963
        },
        {
            "buffer" : 0,
            "byteLength" : 48,
            "byteOffset" : 2052384,
            "target" : 34962
        },
        {
            "buffer" : 0,
            "byteLength" : 32,
            "byteOffset" : 2052432,
            "target" : 34962
        },
        {
            "buffer" : 0,
            "byteLength" : 48,
            "byteOffset" : 2052464,
            "target" : 34962
        },
        {
            "buffer" : 0,
            "byteLength" : 12,
            "byteOffset" : 2052512,
            "target" : 34963
        }
    ],
    "buffers" : [
        {
            "byteLength" : 2052524,
            "uri" : "data:application/octet-stream;base64,"
        }
    ]
}
